<?xml version="1.0" encoding="UTF-8"?>
<svg version="1.1" xmlns="http://www.w3.org/2000/svg" width="1024" height="1024">
<path d="M0 0 C337.92 0 675.84 0 1024 0 C1024 337.92 1024 675.84 1024 1024 C686.08 1024 348.16 1024 0 1024 C0 686.08 0 348.16 0 0 Z " fill="#FDFDFD" transform="translate(0,0)"/>
<path d="M0 0 C9.93297752 5.17171557 17.9926829 14.41004093 25.98876953 22.08154297 C28.75091964 24.71628145 31.55543446 27.30199996 34.375 29.875 C35.31085938 30.73351562 36.24671875 31.59203125 37.2109375 32.4765625 C39.13938671 34.22134988 41.07623547 35.94364644 43.0390625 37.6484375 C55.00231222 48.1596833 55.00231222 48.1596833 55.625 57.5 C55.41286624 62.35255975 54.39916732 64.99249153 50.9609375 68.3984375 C47.97906336 70.83383272 44.82994179 72.98345248 41.640625 75.13671875 C29.79025352 83.4985933 20.95836535 94.88585787 12.7890625 106.72265625 C10.28606812 109.90878228 8.48194246 111.7515172 4.4140625 112.43359375 C-1.56054441 112.44196155 -5.35147386 112.17175423 -10 108 C-12.72467165 103.91299252 -12.76934904 100.80085173 -12 96 C-10.6085127 92.68510917 -8.74727879 89.79317178 -6.75 86.8125 C-6.25886719 86.04486328 -5.76773438 85.27722656 -5.26171875 84.48632812 C-4.30387659 82.99592573 -3.33487346 81.5126223 -2.35351562 80.03759766 C-1.4920488 78.74073581 -0.64520971 77.43394822 0.18164062 76.11474609 C1.06988439 74.70945877 2.02781732 73.34858084 3 72 C3.66 72 4.32 72 5 72 C5 71.34 5 70.68 5 70 C-10.83627985 71.978425 -26.05895764 74.24572639 -41 80 C-41.68030273 80.26151855 -42.36060547 80.52303711 -43.06152344 80.79248047 C-59.28746535 87.18345084 -74.73761711 95.63045642 -88 107 C-88.80945068 107.69198486 -88.80945068 107.69198486 -89.63525391 108.39794922 C-122.54843167 136.89182607 -139.85180203 177.92425655 -143 221 C-144.91411854 259.57511825 -134.00294128 296.51754133 -110 327 C-109.30390625 327.89235352 -109.30390625 327.89235352 -108.59375 328.80273438 C-81.71445249 362.89820693 -41.19436451 382.12156107 1.37158203 387.2878418 C41.57201993 391.72606482 82.80057623 380.56139509 114.88671875 355.76953125 C117.62537259 353.55034314 120.32174839 351.29161679 123 349 C123.80566406 348.31808594 124.61132812 347.63617187 125.44140625 346.93359375 C130.42560461 342.62407537 134.8414719 338.1068117 139 333 C139.76054688 332.08863281 140.52109375 331.17726563 141.3046875 330.23828125 C156.28521169 311.64096384 166.65336049 289.21827711 172 266 C172.17821289 265.23115479 172.35642578 264.46230957 172.54003906 263.67016602 C174.18241557 256.08967594 174.6955996 248.50068748 175.2109375 240.77539062 C175.28570313 239.78603516 175.36046875 238.79667969 175.4375 237.77734375 C175.49808594 236.88265381 175.55867188 235.98796387 175.62109375 235.06616211 C175.74613281 234.38432861 175.87117188 233.70249512 176 233 C178.54275549 231.72862226 180.34808201 231.870575 183.19140625 231.8671875 C184.21814453 231.86589844 185.24488281 231.86460937 186.30273438 231.86328125 C187.91631836 231.86908203 187.91631836 231.86908203 189.5625 231.875 C190.64208984 231.87113281 191.72167969 231.86726562 192.83398438 231.86328125 C194.3721582 231.86521484 194.3721582 231.86521484 195.94140625 231.8671875 C196.88701416 231.86831543 197.83262207 231.86944336 198.80688477 231.87060547 C201 232 201 232 202 233 C202.80129726 246.41187712 201.63302575 258.84898008 198.50390625 271.890625 C198.07868809 273.67060799 197.69124835 275.45955324 197.3125 277.25 C193.89540235 292.6269394 187.4520572 307.19380163 180 321 C179.45859375 322.02222656 178.9171875 323.04445313 178.359375 324.09765625 C170.53913935 338.20065403 160.17154739 350.46191111 149 362 C148.29230469 362.74765625 147.58460938 363.4953125 146.85546875 364.265625 C122.23449474 389.73905635 88.44629763 406.1549024 54 413 C53.24074219 413.15243164 52.48148438 413.30486328 51.69921875 413.46191406 C27.35108087 418.1357067 2.13909294 417.39849105 -22 412 C-22.84981445 411.81276367 -23.69962891 411.62552734 -24.57519531 411.43261719 C-46.43755385 406.47829014 -68.51128316 397.77132247 -87 385 C-88.29535211 384.14029221 -89.59094384 383.2809454 -90.88671875 382.421875 C-130.29931479 355.87740075 -157.6745228 314.23708838 -166.875 267.6875 C-169.15516083 255.8447622 -170.24069906 244.49167725 -170.25 232.4375 C-170.25067474 231.65510956 -170.25134949 230.87271912 -170.25204468 230.06661987 C-170.19336694 187.16990322 -157.19159653 144.01718513 -129 111 C-128.11988479 109.92546825 -127.24106438 108.84987516 -126.36328125 107.7734375 C-114.36098058 93.21280012 -100.83147707 81.25686066 -85 71 C-84.31711914 70.55672363 -83.63423828 70.11344727 -82.93066406 69.65673828 C-55.06095767 51.84112483 -25.50598862 44.85729993 7 42 C3.1033819 38.01011179 -0.80549134 34.10721086 -5.0625 30.5 C-16.70938664 20.4873603 -16.70938664 20.4873603 -17.3125 13.25 C-17.24840363 8.83536244 -15.90882494 6.38052628 -13 3 C-9.0667241 -0.27772992 -4.95878394 -1.25463208 0 0 Z " fill="#1C1C1C" transform="translate(471,303)"/>
<path d="M0 0 C2.6875 2.375 2.6875 2.375 5 5 C5.88558594 5.88171875 5.88558594 5.88171875 6.7890625 6.78125 C11.1283797 11.27135428 14.36379743 15.9722501 17.3125 21.4375 C17.63774658 22.03353027 17.96299316 22.62956055 18.2980957 23.24365234 C23.0199186 32.35869556 24.53478153 40.96823198 24.4375 51.1875 C24.43137695 52.28594238 24.42525391 53.38438477 24.41894531 54.51611328 C24.2513866 63.26912247 22.95243533 70.72500825 20 79 C19.69964844 80.02351563 19.39929688 81.04703125 19.08984375 82.1015625 C17.33491321 87.73861213 15.33729018 91.28282818 10.91015625 95.18359375 C8.67607639 97.30802552 7.00251259 99.63531606 5.1875 102.125 C0.46603988 108.13913173 -4.90755258 111.41536465 -12.5 112.5 C-13.325 112.335 -14.15 112.17 -15 112 C-17.07229473 108.89155791 -17.39647318 106.83709264 -17.8347168 103.20043945 C-20.10833986 84.49706928 -26.63484738 66.31608305 -36 50 C-36.37882324 49.33564941 -36.75764648 48.67129883 -37.14794922 47.98681641 C-42.84492639 38.13555027 -49.34980184 29.41164868 -57 21 C-57.59167969 20.32582031 -58.18335938 19.65164063 -58.79296875 18.95703125 C-65.26697726 11.97149614 -73.8429611 6.79112322 -82 2 C-81.875 0.25 -81.875 0.25 -81 -2 C-57.45603793 -20.37577528 -23.16084047 -16.96620341 0 0 Z " fill="#FE8C08" transform="translate(663,415)"/>
<path d="M0 0 C2.875 1.4375 2.875 1.4375 5 4 C5.89141972 7.19530026 5.82595313 9.79210463 5 13 C3.57681403 15.22951115 1.97807971 16.96060931 0.12109375 18.84375 C-2.22761754 21.23139021 -4.28440927 23.75900597 -6.375 26.375 C-19.62325804 42.61772733 -19.62325804 42.61772733 -26.3125 43.375 C-31.09513003 42.88863084 -32.81828627 41.56048917 -36 38 C-37.3125 34.6875 -37.3125 34.6875 -37 31 C-35.06979964 27.92551148 -32.5926571 25.52271132 -30 23 C-29.24203125 22.23042969 -28.4840625 21.46085937 -27.703125 20.66796875 C-25.48714229 18.4259594 -23.24604232 16.21181691 -21 14 C-20.195625 13.175 -19.39125 12.35 -18.5625 11.5 C-17.716875 10.675 -16.87125 9.85 -16 9 C-15.236875 8.24074219 -14.47375 7.48148437 -13.6875 6.69921875 C-12.82125 5.87035156 -11.955 5.04148437 -11.0625 4.1875 C-10.24910156 3.39730469 -9.43570313 2.60710937 -8.59765625 1.79296875 C-5.43534574 -0.38973881 -3.76901403 -0.46277116 0 0 Z " fill="#FE8A09" transform="translate(714,363)"/>
<path d="M0 0 C3.06193485 2.26596097 5.72820535 4.89153312 8.4375 7.5625 C9.52514648 8.59987305 9.52514648 8.59987305 10.63476562 9.65820312 C14.1832063 13.07911673 17.63420896 16.5884671 20.97265625 20.21484375 C21.533479 20.82320068 22.09430176 21.43155762 22.67211914 22.05834961 C24.2789263 24.40785087 24.76116861 26.17179338 25 29 C22.87526689 32.38383422 20.86347842 34.8194927 17 36 C10.74858177 36.84764993 7.43645254 35.67989847 2.375 31.98046875 C-12.14965816 19.86862387 -12.14965816 19.86862387 -13.3984375 12.71875 C-13.34892288 8.03136566 -13.16376699 4.72872539 -10 1 C-6.55993981 -1.60970084 -4.03640691 -1.20441174 0 0 Z " fill="#FE8A0A" transform="translate(588,346)"/>
<path d="M0 0 C2.58901558 4.14242492 2.48934888 6.16200259 1.875 11 C0.6875 13.4375 0.6875 13.4375 -1.125 15 C-4.82228092 15.97373294 -8.32114715 16.12865842 -12.1328125 16.1328125 C-13.28523437 16.13410156 -14.43765625 16.13539063 -15.625 16.13671875 C-16.82125 16.13285156 -18.0175 16.12898438 -19.25 16.125 C-20.42304687 16.12886719 -21.59609375 16.13273437 -22.8046875 16.13671875 C-42.70245953 16.11461011 -42.70245953 16.11461011 -45.90136719 13.6081543 C-47.61233786 11.35951826 -47.52470122 9.73285487 -47.5 6.9375 C-47.50773438 6.05964844 -47.51546875 5.18179687 -47.5234375 4.27734375 C-47.39195312 3.52582031 -47.26046875 2.77429688 -47.125 2 C-43.56733758 -0.37177494 -41.63820221 -0.37812924 -37.40234375 -0.6328125 C-36.74222794 -0.67437469 -36.08211212 -0.71593689 -35.4019928 -0.75875854 C-34.00270552 -0.84517769 -32.60314563 -0.92727542 -31.20336914 -1.00537109 C-29.09389632 -1.12324562 -26.98552027 -1.25371264 -24.87695312 -1.38671875 C-4.15487739 -2.65912153 -4.15487739 -2.65912153 0 0 Z " fill="#FE8A0B" transform="translate(754.125,432)"/>
<path d="M0 0 C3 2 3 2 4 5 C4.38142109 13.93826963 3.89881296 22.94011841 3.5625 31.875 C3.52318359 33.04546875 3.48386719 34.2159375 3.44335938 35.421875 C2.98920129 47.7470268 2.98920129 47.7470268 2 52 C-1.15546316 54.10364211 -1.56087261 54.26411176 -5.0625 53.8125 C-5.75472656 53.73644531 -6.44695313 53.66039062 -7.16015625 53.58203125 C-9 53 -9 53 -11 50 C-12.60003075 40.98681475 -12.21739942 31.4427437 -12.24023438 22.3059082 C-12.25011344 19.9099877 -12.28132657 17.5148673 -12.3125 15.11914062 C-12.31901644 13.58854668 -12.32427221 12.05794672 -12.328125 10.52734375 C-12.3466452 9.4586631 -12.3466452 9.4586631 -12.36553955 8.36839294 C-12.34342318 3.49154802 -12.34342318 3.49154802 -10.66699219 1.09204102 C-6.89879975 -1.37648927 -4.22654547 -0.96858334 0 0 Z " fill="#FE8909" transform="translate(654,330)"/>
<path d="M0 0 C0.99 0.33 1.98 0.66 3 1 C1.26440562 4.057952 -0.38472619 6.63379989 -3 9 C-3.66 8.67 -4.32 8.34 -5 8 C-3.35 5.36 -1.7 2.72 0 0 Z " fill="#161616" transform="translate(336,421)"/>
</svg>
