<svg width="1024" height="1024" viewBox="0 0 1024 1024" fill="none" xmlns="http://www.w3.org/2000/svg">
<path d="M471 303C480.933 308.172 488.993 317.41 496.989 325.081C499.751 327.716 502.556 330.302 505.375 332.875C506.311 333.733 507.247 334.592 508.211 335.476C510.139 337.221 512.076 338.944 514.039 340.648C526.002 351.16 526.002 351.16 526.625 360.5C526.413 365.352 525.399 367.992 521.961 371.398C518.979 373.834 515.83 375.983 512.641 378.137C500.79 386.499 491.958 397.886 483.789 409.723C481.286 412.909 479.482 414.751 475.414 415.434C469.44 415.442 465.649 415.172 461 411C458.275 406.913 458.231 403.801 459 399C460.392 395.685 462.253 392.793 464.25 389.812C464.741 389.045 465.232 388.277 465.738 387.486C466.696 385.996 467.665 384.513 468.647 383.038C469.508 381.741 470.355 380.434 471.182 379.115C472.07 377.709 473.028 376.349 474 375C474.66 375 475.32 375 476 375C476 374.34 476 373.68 476 373C460.164 374.978 444.941 377.246 430 383C429.32 383.261 428.639 383.523 427.939 383.792C411.713 390.183 396.262 398.63 383 410C382.191 410.692 382.191 410.692 381.365 411.398C348.452 439.892 331.148 480.924 328 524C326.086 562.575 336.997 599.517 361 630C361.696 630.892 361.696 630.892 362.406 631.803C389.286 665.898 429.806 685.122 472.372 690.288C512.572 694.726 553.801 683.561 585.887 658.769C588.625 656.55 591.322 654.292 594 652C594.806 651.318 595.611 650.636 596.441 649.934C601.426 645.624 605.842 641.107 610 636C610.761 635.089 611.521 634.177 612.305 633.238C627.285 614.641 637.653 592.218 643 569C643.178 568.231 643.357 567.462 643.54 566.67C645.183 559.09 645.696 551.501 646.211 543.775C646.286 542.786 646.361 541.797 646.438 540.777C646.498 539.883 646.559 538.988 646.621 538.066C646.746 537.384 646.871 536.702 647 536C649.543 534.729 651.348 534.87 654.191 534.867C655.218 534.866 656.245 534.865 657.303 534.863C658.916 534.869 658.916 534.869 660.563 534.875C661.642 534.871 662.722 534.867 663.834 534.863C665.372 534.865 665.372 534.865 666.941 534.867C667.887 534.868 668.833 534.869 669.807 534.871C672 535 672 535 673 536C673.801 549.412 672.633 561.849 669.504 574.891C669.079 576.671 668.691 578.459 668.313 580.25C664.895 595.627 658.452 610.194 651 624C650.459 625.022 649.917 626.044 649.359 627.098C641.539 641.201 631.172 653.462 620 665C619.292 665.748 618.585 666.495 617.856 667.266C593.235 692.739 559.446 709.155 525 716C524.241 716.152 523.482 716.305 522.699 716.462C498.351 721.136 473.139 720.398 449 715C448.15 714.813 447.3 714.625 446.425 714.433C424.563 709.478 402.489 700.771 384 688C382.705 687.14 381.409 686.281 380.113 685.422C340.701 658.877 313.326 617.237 304.125 570.687C301.845 558.845 300.759 547.492 300.75 535.437C300.749 534.655 300.749 533.873 300.748 533.067C300.807 490.17 313.808 447.017 342 414C342.88 412.925 343.759 411.85 344.637 410.773C356.639 396.213 370.169 384.257 386 374C386.683 373.557 387.366 373.113 388.069 372.657C415.939 354.841 445.494 347.857 478 345C474.103 341.01 470.195 337.107 465.938 333.5C454.291 323.487 454.291 323.487 453.688 316.25C453.752 311.835 455.091 309.38 458 306C461.933 302.722 466.041 301.745 471 303Z" fill="#1C1C1C"/>
<path d="M663 415C665.688 417.375 665.688 417.375 668 420C668.886 420.882 668.886 420.882 669.789 421.781C674.128 426.271 677.364 430.972 680.312 436.438C680.638 437.034 680.963 437.63 681.298 438.244C686.02 447.359 687.535 455.968 687.438 466.188C687.431 467.286 687.425 468.384 687.419 469.516C687.251 478.269 685.952 485.725 683 494C682.7 495.024 682.399 496.047 682.09 497.102C680.335 502.739 678.337 506.283 673.91 510.184C671.676 512.308 670.003 514.635 668.188 517.125C663.466 523.139 658.092 526.415 650.5 527.5C649.675 527.335 648.85 527.17 648 527C645.928 523.892 645.604 521.837 645.165 518.201C642.892 499.497 636.365 481.316 627 465C626.621 464.336 626.242 463.671 625.852 462.987C620.155 453.136 613.65 444.412 606 436C605.408 435.326 604.817 434.652 604.207 433.957C597.733 426.972 589.157 421.791 581 417C581.125 415.25 581.125 415.25 582 413C605.544 394.624 639.839 398.034 663 415Z" fill="#FE8C08"/>
<path d="M714 363C716.875 364.438 716.875 364.438 719 367C719.892 370.195 719.826 372.792 719 376C717.577 378.23 715.979 379.961 714.122 381.844C711.773 384.231 709.716 386.759 707.625 389.375C694.377 405.618 694.377 405.618 687.688 406.375C682.905 405.889 681.182 404.561 678 401C676.688 397.688 676.688 397.688 677 394C678.931 390.926 681.408 388.523 684 386C684.758 385.231 685.516 384.461 686.297 383.668C688.513 381.426 690.754 379.212 693 377C693.805 376.175 694.609 375.35 695.438 374.5C696.284 373.675 697.129 372.85 698 372C698.764 371.241 699.527 370.482 700.313 369.699C701.179 368.87 702.045 368.042 702.938 367.188C703.751 366.397 704.565 365.607 705.403 364.793C708.565 362.61 710.231 362.537 714 363Z" fill="#FE8A09"/>
<path d="M588 346C591.062 348.266 593.728 350.891 596.438 353.562C597.525 354.6 597.525 354.6 598.635 355.658C602.183 359.079 605.634 362.588 608.973 366.215C609.533 366.823 610.094 367.431 610.672 368.058C612.279 370.408 612.761 372.172 613 375C610.875 378.384 608.863 380.819 605 382C598.749 382.848 595.436 381.68 590.375 377.98C575.85 365.869 575.85 365.869 574.602 358.719C574.651 354.031 574.836 350.729 578 347C581.44 344.39 583.964 344.796 588 346Z" fill="#FE8A0A"/>
<path d="M754.125 432C756.714 436.142 756.614 438.162 756 443C754.812 445.437 754.812 445.437 753 447C749.303 447.974 745.804 448.129 741.992 448.133C740.84 448.134 739.687 448.135 738.5 448.137C737.304 448.133 736.107 448.129 734.875 448.125C733.702 448.129 732.529 448.133 731.32 448.137C711.423 448.115 711.423 448.115 708.224 445.608C706.513 443.359 706.6 441.733 706.625 438.937C706.617 438.06 706.61 437.182 706.602 436.277C706.733 435.526 706.865 434.774 707 434C710.558 431.628 712.487 431.622 716.723 431.367C717.383 431.326 718.043 431.284 718.723 431.241C720.122 431.155 721.522 431.073 722.922 430.995C725.031 430.877 727.139 430.746 729.248 430.613C749.97 429.341 749.97 429.341 754.125 432Z" fill="#FE8A0B"/>
<path d="M654 330C657 332 657 332 658 335C658.382 343.938 657.899 352.94 657.563 361.875C657.523 363.046 657.484 364.216 657.444 365.422C656.99 377.747 656.99 377.747 656 382C652.845 384.104 652.439 384.264 648.938 383.813C648.246 383.737 647.553 383.66 646.84 383.582C645 383 645 383 643 380C641.4 370.987 641.783 361.443 641.76 352.306C641.75 349.91 641.719 347.515 641.688 345.119C641.681 343.589 641.676 342.058 641.672 340.527C641.654 339.459 641.654 339.459 641.635 338.368C641.657 333.492 641.657 333.492 643.333 331.092C647.102 328.624 649.774 329.032 654 330Z" fill="#FE8909"/>
<path d="M336 421C336.99 421.33 337.98 421.66 339 422C337.264 425.058 335.615 427.634 333 430C332.34 429.67 331.68 429.34 331 429C332.65 426.36 334.3 423.72 336 421Z" fill="#161616"/>
</svg>
